<?xml version="1.0" standalone="no"?>
<!DOCTYPE svg PUBLIC "-//W3C//DTD SVG 20010904//EN"
 "http://www.w3.org/TR/2001/REC-SVG-20010904/DTD/svg10.dtd">
<svg version="1.0" xmlns="http://www.w3.org/2000/svg"
 width="300.000000pt" height="300.000000pt" viewBox="0 0 300.000000 300.000000"
 preserveAspectRatio="xMidYMid meet">
<metadata>
Created by potrace 1.13, written by Peter Selinger 2001-2015
</metadata>
<g transform="translate(0.000000,300.000000) scale(0.100000,-0.100000)"
fill="#000000" stroke="none">
<path d="M1245 2984 c-495 -89 -901 -399 -1110 -847 -92 -197 -135 -400 -135
-637 0 -175 14 -277 60 -438 136 -471 531 -866 1002 -1002 161 -46 263 -60
438 -60 175 0 277 14 438 60 471 136 866 531 1002 1002 46 161 60 263 60 438
0 175 -14 277 -60 438 -99 342 -334 647 -655 850 -138 86 -350 164 -539 197
-113 19 -390 19 -501 -1z m451 -199 c566 -97 992 -523 1089 -1089 64 -373 -69
-796 -342 -1086 -240 -255 -596 -410 -943 -410 -420 0 -843 225 -1074 573
-269 405 -299 887 -81 1315 187 367 535 622 950 696 107 19 292 19 401 1z"/>
<path d="M567 2294 c-4 -4 -7 -72 -7 -151 l0 -143 89 0 c72 0 90 -3 95 -16 3
-9 6 -229 6 -489 l0 -474 -62 -3 -63 -3 0 -150 0 -150 298 -3 297 -2 0 155 0
155 -65 0 -65 0 0 183 c0 180 0 182 18 152 10 -16 78 -144 151 -283 l133 -253
106 3 106 3 66 125 c36 69 103 195 148 280 l81 155 1 -182 0 -183 -65 0 -66 0
3 -152 3 -153 295 0 295 0 3 153 3 152 -66 0 -65 0 0 248 c0 137 3 357 7 490
l6 242 89 0 89 0 -3 148 -3 147 -243 3 -243 2 -158 -322 c-86 -178 -184 -380
-216 -451 -33 -70 -64 -126 -69 -124 -4 1 -68 126 -140 277 -73 151 -170 352
-217 445 l-84 170 -241 3 c-132 1 -243 -1 -247 -4z"/>
</g>
</svg>
